<?xml version="1.0" encoding="utf-8"?>
<!-- Generator: Adobe Illustrator 25.0.1, SVG Export Plug-In . SVG Version: 6.00 Build 0)  -->
<svg version="1.1" id="Layer_1" xmlns="http://www.w3.org/2000/svg" xmlns:xlink="http://www.w3.org/1999/xlink" x="0px" y="0px"
	 viewBox="0 0 82 11.9" style="enable-background:new 0 0 82 11.9;" xml:space="preserve">
<style type="text/css">
	.st0{fill-rule:evenodd;clip-rule:evenodd;fill:#FFFFFF;}
	.st1{filter:url(#Adobe_OpacityMaskFilter);}
	.st2{mask:url(#mask-2_2_);fill-rule:evenodd;clip-rule:evenodd;fill:#FFFFFF;}
	.st3{filter:url(#Adobe_OpacityMaskFilter_1_);}
	.st4{mask:url(#mask-4_12_);fill-rule:evenodd;clip-rule:evenodd;fill:#FFFFFF;}
	.st5{filter:url(#Adobe_OpacityMaskFilter_2_);}
	.st6{mask:url(#mask-4_11_);fill-rule:evenodd;clip-rule:evenodd;fill:#FFFFFF;}
	.st7{filter:url(#Adobe_OpacityMaskFilter_3_);}
	.st8{mask:url(#mask-4_10_);fill-rule:evenodd;clip-rule:evenodd;fill:#FFFFFF;}
	.st9{filter:url(#Adobe_OpacityMaskFilter_4_);}
	.st10{mask:url(#mask-4_9_);fill-rule:evenodd;clip-rule:evenodd;fill:#FFFFFF;}
	.st11{filter:url(#Adobe_OpacityMaskFilter_5_);}
	.st12{mask:url(#mask-4_8_);fill-rule:evenodd;clip-rule:evenodd;fill:#FDFFFD;}
	.st13{filter:url(#Adobe_OpacityMaskFilter_6_);}
	.st14{mask:url(#mask-4_7_);fill-rule:evenodd;clip-rule:evenodd;fill:#FDFFFD;}
</style>
<g id="header" transform="translate(-20.000000, -21.000000)">
	<g id="Group-17" transform="translate(20.000000, 21.000000)">
		<path id="Fill-1" class="st0" d="M32.6,7.3c0.2-0.3,0.3-0.6,0.3-1.1c0-0.5-0.2-0.9-0.5-1.1c-0.3-0.2-0.8-0.3-1.4-0.3H30v2.9h1.3
			C31.9,7.7,32.3,7.6,32.6,7.3 M34,3.9c0.6,0.5,0.9,1.3,0.9,2.4c0,1.1-0.3,1.9-0.9,2.4c-0.6,0.5-1.6,0.7-2.9,0.7H30v2.4H28V3.1h3.1
			C32.4,3.1,33.4,3.4,34,3.9"/>
		<path id="Fill-3" class="st0" d="M41.1,7c0.2-0.2,0.4-0.6,0.4-1c0-0.5-0.1-0.8-0.4-1c-0.2-0.2-0.7-0.3-1.3-0.3h-1.5v2.6h1.4
			C40.5,7.4,40.9,7.3,41.1,7 M43.5,6c0,1.4-0.6,2.3-1.7,2.7l2.2,3.1h-2.4L39.7,9h-1.3v2.8h-1.9V3.1h3.3c1.4,0,2.3,0.2,2.9,0.7
			C43.2,4.3,43.5,5,43.5,6"/>
		<polygon id="Fill-5" class="st0" points="72.3,3.1 72.3,4.9 67.9,4.9 67.9,6.6 71.8,6.6 71.8,8.3 67.9,8.3 67.9,10.1 72.4,10.1 
			72.4,11.8 66,11.8 66,3.1 		"/>
		<g id="Group-9" transform="translate(137.519984, 5.578451)">
			<g id="Clip-8">
			</g>
			<defs>
				<filter id="Adobe_OpacityMaskFilter" filterUnits="userSpaceOnUse" x="-63.4" y="-2.5" width="7.9" height="8.7">
					<feColorMatrix  type="matrix" values="1 0 0 0 0  0 1 0 0 0  0 0 1 0 0  0 0 0 1 0"/>
				</filter>
			</defs>
			<mask maskUnits="userSpaceOnUse" x="-63.4" y="-2.5" width="7.9" height="8.7" id="mask-2_2_">
				<g class="st1">
					<polygon id="path-1_2_" class="st0" points="-63.4,-2.5 -55.5,-2.5 -55.5,6.2 -63.4,6.2 					"/>
				</g>
			</mask>
			<path id="Fill-7" class="st2" d="M-58.2,3.8c0.5-0.4,0.7-1.1,0.7-2c0-0.9-0.2-1.5-0.7-2c-0.5-0.5-1.2-0.7-2.2-0.7h-1.1v5.3h1.2
				C-59.3,4.5-58.6,4.3-58.2,3.8 M-56.7-1.3c0.8,0.8,1.2,1.8,1.2,3.2c0,1.4-0.4,2.4-1.2,3.2c-0.8,0.8-2,1.2-3.7,1.2h-3v-8.7h3.1
				C-58.8-2.5-57.6-2.1-56.7-1.3"/>
		</g>
		<g id="Clip-11">
		</g>
		<defs>
			<filter id="Adobe_OpacityMaskFilter_1_" filterUnits="userSpaceOnUse" x="0" y="3.1" width="2" height="8.8">
				<feColorMatrix  type="matrix" values="1 0 0 0 0  0 1 0 0 0  0 0 1 0 0  0 0 0 1 0"/>
			</filter>
		</defs>
		<mask maskUnits="userSpaceOnUse" x="0" y="3.1" width="2" height="8.8" id="mask-4_12_">
			<g class="st3">
				<polygon id="path-3_12_" class="st0" points="0,11.9 82,11.9 82,0 0,0 				"/>
			</g>
		</mask>
		<polygon id="Fill-10" class="st4" points="0,11.9 2,11.9 2,3.1 0,3.1 		"/>
		<defs>
			<filter id="Adobe_OpacityMaskFilter_2_" filterUnits="userSpaceOnUse" x="4.2" y="3.1" width="9.9" height="8.8">
				<feColorMatrix  type="matrix" values="1 0 0 0 0  0 1 0 0 0  0 0 1 0 0  0 0 0 1 0"/>
			</filter>
		</defs>
		<mask maskUnits="userSpaceOnUse" x="4.2" y="3.1" width="9.9" height="8.8" id="mask-4_11_">
			<g class="st5">
				<polygon id="path-3_11_" class="st0" points="0,11.9 82,11.9 82,0 0,0 				"/>
			</g>
		</mask>
		<polygon id="Fill-12" class="st6" points="12.1,6.4 9.7,11.2 8.5,11.2 6.1,6.4 6.1,11.9 4.2,11.9 4.2,3.1 6.8,3.1 9.1,7.9 
			11.4,3.1 14,3.1 14,11.9 12.1,11.9 		"/>
		<defs>
			<filter id="Adobe_OpacityMaskFilter_3_" filterUnits="userSpaceOnUse" x="16.2" y="3.1" width="9.9" height="8.8">
				<feColorMatrix  type="matrix" values="1 0 0 0 0  0 1 0 0 0  0 0 1 0 0  0 0 0 1 0"/>
			</filter>
		</defs>
		<mask maskUnits="userSpaceOnUse" x="16.2" y="3.1" width="9.9" height="8.8" id="mask-4_10_">
			<g class="st7">
				<polygon id="path-3_10_" class="st0" points="0,11.9 82,11.9 82,0 0,0 				"/>
			</g>
		</mask>
		<polygon id="Fill-13" class="st8" points="24.1,6.4 21.7,11.2 20.6,11.2 18.2,6.4 18.2,11.9 16.2,11.9 16.2,3.1 18.9,3.1 
			21.2,7.9 23.5,3.1 26.1,3.1 26.1,11.9 24.1,11.9 		"/>
		<defs>
			<filter id="Adobe_OpacityMaskFilter_4_" filterUnits="userSpaceOnUse" x="44.9" y="2.9" width="9.1" height="9">
				<feColorMatrix  type="matrix" values="1 0 0 0 0  0 1 0 0 0  0 0 1 0 0  0 0 0 1 0"/>
			</filter>
		</defs>
		<mask maskUnits="userSpaceOnUse" x="44.9" y="2.9" width="9.1" height="9" id="mask-4_9_">
			<g class="st9">
				<polygon id="path-3_9_" class="st0" points="0,11.9 82,11.9 82,0 0,0 				"/>
			</g>
		</mask>
		<path id="Fill-14" class="st10" d="M51.8,9.7l-2.2,0.2l0,0.6l-1.2-1.2l-0.8,1.3l-0.2-0.1l0.7-1.3l-1.5-0.6l0.5-0.3l-0.7-2.2
			c0.5,0.3,0.7-0.1,0.7-0.3c0-0.2,0.1-0.9,0.1-0.9s0.3,0.3,0.5,0.5c0.2,0.2,0.4,0.2,0.5,0.1c0.1-0.1,0.4-0.5,0.4-0.5l0.4,1.2
			l0.8-1.8c0,0,0.1,0.3,0.3,0.5c0.1,0.3,0.3,0.3,0.4,0.1c0.2-0.1,0.8-0.7,0.8-0.7S51,5.2,51,5.4c0,0.2,0,0.3,0.3,0.4
			c0.3,0,0.5,0,0.5,0l-1.2,1.5l1.2-0.2c0,0-0.2,0.4-0.2,0.6c-0.1,0.1,0,0.3,0.2,0.4c0.2,0.1,0.6,0.3,0.6,0.3s-0.5,0.4-0.7,0.5
			C51.5,9,51.3,9.4,51.8,9.7 M52.7,4.2c-0.9-0.9-2-1.3-3.3-1.3c-1.3,0-2.4,0.4-3.3,1.3c-0.9,0.9-1.3,1.9-1.3,3.2
			c0,1.3,0.4,2.3,1.3,3.2c0.9,0.9,2,1.3,3.3,1.3c1.3,0,2.4-0.4,3.3-1.3C53.6,9.8,54,8.7,54,7.4C54,6.1,53.6,5.1,52.7,4.2"/>
		<defs>
			<filter id="Adobe_OpacityMaskFilter_5_" filterUnits="userSpaceOnUse" x="59" y="0" width="7.4" height="9.1">
				<feColorMatrix  type="matrix" values="1 0 0 0 0  0 1 0 0 0  0 0 1 0 0  0 0 0 1 0"/>
			</filter>
		</defs>
		<mask maskUnits="userSpaceOnUse" x="59" y="0" width="7.4" height="9.1" id="mask-4_8_">
			<g class="st11">
				<polygon id="path-3_8_" class="st0" points="0,11.9 82,11.9 82,0 0,0 				"/>
			</g>
		</mask>
		<path id="Fill-15" class="st12" d="M66.4,0c-2.7,3.3-4.4,6.7-5.5,9.1L59,6.6C62,2.4,66.4,0,66.4,0"/>
		<defs>
			<filter id="Adobe_OpacityMaskFilter_6_" filterUnits="userSpaceOnUse" x="52.9" y="2.9" width="7.9" height="9">
				<feColorMatrix  type="matrix" values="1 0 0 0 0  0 1 0 0 0  0 0 1 0 0  0 0 0 1 0"/>
			</filter>
		</defs>
		<mask maskUnits="userSpaceOnUse" x="52.9" y="2.9" width="7.9" height="9" id="mask-4_7_">
			<g class="st13">
				<polygon id="path-3_7_" class="st0" points="0,11.9 82,11.9 82,0 0,0 				"/>
			</g>
		</mask>
		<polygon id="Fill-16" class="st14" points="52.9,2.9 55.2,2.9 60.8,9.7 60,11.9 		"/>
	</g>
</g>
</svg>
