<?xml version="1.0" encoding="UTF-8"?>
<svg width="153px" height="23px" viewBox="0 0 153 23" version="1.1" xmlns="http://www.w3.org/2000/svg" xmlns:xlink="http://www.w3.org/1999/xlink">
    <title>Group 17</title>
    <defs>
        <polygon id="path-1" points="0.0173519979 0.216899974 14.6372383 0.216899974 14.6372383 16.3358981 0.0173519979 16.3358981"></polygon>
        <polygon id="path-3" points="0 22.1384494 152.157222 22.1384494 152.157222 -0.000107999987 0 -0.000107999987"></polygon>
    </defs>
    <g id="symbols" stroke="none" stroke-width="1" fill="none" fill-rule="evenodd">
        <g id="header" transform="translate(-20.000000, -21.000000)">
            <rect id="shape-header-back" fill="#FFFFFF" x="0" y="0" width="320" height="68"></rect>
            <g id="Group-17" transform="translate(20.000000, 21.000000)">
                <path d="M60.4426248,13.5784064 C60.8724647,13.0934864 61.0881047,12.3864465 61.0881047,11.4565666 C61.0881047,10.5263267 60.8076648,9.86572682 60.2467848,9.47296687 C59.6851849,9.08128692 58.812905,8.88544694 57.6288651,8.88544694 L55.5768654,8.88544694 L55.5768654,14.3041663 L57.9982251,14.3041663 C59.1973849,14.3041663 60.0120648,14.0626063 60.4426248,13.5784064 M63.0828645,7.23628714 C64.2125443,8.19748702 64.7777443,9.67312685 64.7777443,11.6639266 C64.7777443,13.6550864 64.1970643,15.1116462 63.0364245,16.0339661 C61.8757846,16.956286 60.1042248,17.4170859 57.7210251,17.4170859 L55.5768654,17.4170859 L55.5768654,21.9142054 L51.9790258,21.9142054 L51.9790258,5.79556731 L57.6753051,5.79556731 C60.1503048,5.79556731 61.9524646,6.27580725 63.0828645,7.23628714" id="Fill-1" fill="#39B54A"></path>
                <path d="M76.3302869,13.0591424 C76.7763268,12.6595425 76.9995268,12.0252226 76.9995268,11.1565427 C76.9995268,10.2882228 76.7687668,9.69206284 76.3079669,9.36950288 C75.846087,9.04658292 75.0393271,8.88530294 73.8866072,8.88530294 L71.1884075,8.88530294 L71.1884075,13.6585424 L73.8171272,13.6585424 C75.0472471,13.6585424 75.884247,13.4591024 76.3302869,13.0591424 M80.6661264,11.1450227 C80.6661264,13.7276624 79.6433665,15.3962622 77.5985667,16.1493821 L81.6806063,21.9144214 L77.2533268,21.9144214 L73.6785272,16.771822 L71.1884075,16.771822 L71.1884075,21.9144214 L67.5905679,21.9144214 L67.5905679,5.79542331 L73.7019272,5.79542331 C76.2075269,5.79542331 77.9945667,6.21842326 79.0630466,7.06370316 C80.1318864,7.90934306 80.6661264,9.27014289 80.6661264,11.1450227" id="Fill-3" fill="#39B54A"></path>
                <polygon id="Fill-5" fill="#39B54A" points="134.078996 5.79549531 134.078996 9.00093493 126.054237 9.00093493 126.054237 12.3212145 133.271516 12.3212145 133.271516 15.3884142 126.054237 15.3884142 126.054237 18.7320938 134.332436 18.7320938 134.332436 21.9141334 122.456397 21.9141334 122.456397 5.79549531"></polygon>
                <g id="Group-9" transform="translate(137.519984, 5.578451)">
                    <mask id="mask-2" fill="white">
                        <use xlink:href="#path-1"></use>
                    </mask>
                    <g id="Clip-8"></g>
                    <path d="M9.69127084,11.9086186 C10.5750707,11.0784587 11.0171507,9.87137882 11.0171507,8.28773901 C11.0171507,6.7044592 10.5750707,5.48621935 9.69127084,4.63301945 C8.80675095,3.77981955 7.44991111,3.3524996 5.62075133,3.3524996 L3.61519157,3.3524996 L3.61519157,13.1534984 L5.8983113,13.1534984 C7.5427911,13.1534984 8.80675095,12.7387785 9.69127084,11.9086186 M12.3318705,2.32685972 C13.8690703,3.73337955 14.6373103,5.68997932 14.6373103,8.19593902 C14.6373103,10.7011787 13.8881503,12.6847785 12.3887505,14.1452983 C10.8907907,15.6058181 8.60407097,16.3358981 5.52895134,16.3358981 L0.0173519979,16.3358981 L0.0173519979,0.216899974 L5.71363132,0.216899974 C8.58859098,0.216899974 10.7939507,0.92033989 12.3318705,2.32685972" id="Fill-7" fill="#39B54A" mask="url(#mask-2)"></path>
                </g>
                <mask id="mask-4" fill="white">
                    <use xlink:href="#path-3"></use>
                </mask>
                <g id="Clip-11"></g>
                <polygon id="Fill-10" fill="#3D62AE" mask="url(#mask-4)" points="0 22.1388094 3.66155956 22.1388094 3.66155956 5.73109132 0 5.73109132"></polygon>
                <polygon id="Fill-12" fill="#3D62AE" mask="url(#mask-4)" points="22.3928613 11.8103746 17.9562219 20.7768935 15.7739021 20.7768935 11.3603026 11.8103746 11.3603026 22.1384134 7.69910308 22.1384134 7.69910308 5.73105532 12.6516225 5.73105532 16.877302 14.7443742 21.1249415 5.73105532 26.0547809 5.73105532 26.0547809 22.1384134 22.3928613 22.1384134"></polygon>
                <polygon id="Fill-13" fill="#3D62AE" mask="url(#mask-4)" points="44.7851107 11.8103746 40.3491912 20.7768935 38.1661515 20.7768935 33.753272 11.8103746 33.753272 22.1384134 30.0913524 22.1384134 30.0913524 5.73105532 35.0442318 5.73105532 39.2695513 14.7443742 43.5179108 5.73105532 48.4470302 5.73105532 48.4470302 22.1384134 44.7851107 22.1384134"></polygon>
                <path d="M96.0511565,17.9377539 L92.021677,18.3384338 L91.945717,19.3889137 L89.8008373,17.147194 L88.4033175,19.4976337 L88.0890375,19.2697537 L89.4757573,16.930114 L86.6702777,15.8468741 L87.5256376,15.3165942 L86.1392777,11.2863947 C86.9949976,11.8713946 87.4068376,11.1888347 87.4392376,10.7341547 C87.4716376,10.2794748 87.6235576,9.05511492 87.6235576,9.05511492 C87.6235576,9.05511492 88.1649975,9.56415486 88.5224774,9.93243482 C88.8799574,10.2899148 89.2158374,10.2247548 89.3889973,10.0299948 C89.6165173,9.75927484 90.1255573,9.14187491 90.1255573,9.14187491 L90.7865172,11.4494746 L92.238037,8.06943504 C92.238037,8.06943504 92.465557,8.53491498 92.7143169,9.02235492 C92.9637969,9.51015487 93.2345169,9.54255486 93.5268369,9.28263489 C93.8198768,9.03315492 95.0327167,7.98303505 95.0327167,7.98303505 C95.0327167,7.98303505 94.6640767,9.59691486 94.5668767,9.98679481 C94.4804767,10.3766748 94.6208767,10.6257947 95.1414367,10.6585547 C95.6717166,10.6797947 96.1487165,10.7017547 96.1487165,10.7017547 L93.9062768,13.5396344 L96.1591565,13.1821544 C96.1591565,13.1821544 95.8560366,13.9403143 95.7260766,14.2761943 C95.6177166,14.5253143 95.7149166,14.8719942 96.1807565,15.0671142 C96.6357965,15.2510742 97.2967564,15.5545541 97.2967564,15.5545541 C97.2967564,15.5545541 96.3326765,16.2263141 95.9535966,16.453834 C95.5853166,16.680994 95.1842767,17.3527539 96.0511565,17.9377539 M97.7730363,7.80951507 C96.1487165,6.21687526 94.1337968,5.42631535 91.7394371,5.42631535 C89.3457973,5.42631535 87.3308776,6.21687526 85.7061978,7.80951507 C84.070718,9.39099488 83.2581981,11.3731546 83.2581981,13.7455544 C83.2581981,16.1175941 84.070718,18.1001138 85.7061978,19.6923937 C87.3308776,21.2846735 89.3457973,22.0755934 91.7394371,22.0755934 C94.1337968,22.0755934 96.1487165,21.2846735 97.7730363,19.6923937 C99.3980762,18.1001138 100.210596,16.1175941 100.210596,13.7455544 C100.210596,11.3731546 99.3980762,9.39099488 97.7730363,7.80951507" id="Fill-14" fill="#39B54A" mask="url(#mask-4)"></path>
                <path d="M123.239973,-2.55795354e-15 C118.212574,6.16103927 115.137454,12.4563585 113.084735,16.837918 L109.513535,12.2144385 C114.948094,4.51115946 123.239973,-2.55795354e-15 123.239973,-2.55795354e-15" id="Fill-15" fill="#39B54A" mask="url(#mask-4)"></path>
                <polygon id="Fill-16" fill="#39B54A" mask="url(#mask-4)" points="98.1995643 5.42617135 102.408684 5.42617135 112.813043 17.9833299 111.316163 22.0758094"></polygon>
            </g>
        </g>
    </g>
</svg>
